<?xml version="1.0" standalone="no"?><!DOCTYPE svg PUBLIC "-//W3C//DTD SVG 1.1//EN" "http://www.w3.org/Graphics/SVG/1.1/DTD/svg11.dtd"><svg t="1693038300051" class="icon" viewBox="0 0 1024 1024" version="1.1" xmlns="http://www.w3.org/2000/svg" p-id="1100" xmlns:xlink="http://www.w3.org/1999/xlink" width="200" height="200"><path d="M55.9104 46.6432m240.9984 0l439.6032 0q240.9984 0 240.9984 240.9984l0 439.6032q0 240.9984-240.9984 240.9984l-439.6032 0q-240.9984 0-240.9984-240.9984l0-439.6032q0-240.9984 240.9984-240.9984Z" fill="#FCEDE8" p-id="1101"></path><path d="M507.9552 757.76h12.3392a285.4912 285.4912 0 0 1 68.5056 9.728c64.5632 18.2784 95.5392 5.12 112.2816-15.36s16.4352-69.9392-26.8288-111.0016S622.2848 593.92 586.496 542.72c-26.9824-38.4512-54.3744-42.7008-66.2528-42.4448h-12.2368c-11.8784 0-39.2704 3.9936-66.2528 42.4448-35.84 51.2-44.3904 57.088-87.6544 98.0992s-43.6736 90.2656-26.88 111.0016 47.7696 33.7408 112.2816 15.36A286.1568 286.1568 0 0 1 507.9552 757.76z" fill="#F9D9CB" p-id="1102"></path><path d="M642.8672 611.3792c-19.6096-19.0464-31.3344-32.6656-56.32-68.4544-26.9824-38.4512-54.3744-42.7008-66.2528-42.4448h-12.2368c-11.8784 0-39.2704 3.9936-66.2528 42.4448-35.84 51.2-44.3904 57.088-87.6544 98.0992-35.2768 33.4848-42.0352 72.3968-34.2528 96.8704 12.4416 1.1776 25.0368 1.8432 37.7344 1.8432a380.16 380.16 0 0 0 285.2352-128.3584z" fill="#FBE4DB" p-id="1103"></path><path d="M337.876361 353.745212a90.2656 68.2496 80.06 1 0 134.450219-23.562054 90.2656 68.2496 80.06 1 0-134.450219 23.562054Z" fill="#FEF6F3" p-id="1104"></path><path d="M214.524095 537.04136a80.9472 61.184 71.15 1 0 115.805119-39.536083 80.9472 61.184 71.15 1 0-115.805119 39.536083Z" fill="#FEF6F3" p-id="1105"></path><path d="M612.130641 430.875428a68.2496 90.2656 9.94 1 0 31.162718-177.821256 68.2496 90.2656 9.94 1 0-31.162718 177.821256Z" fill="#FBE4DB" p-id="1106"></path><path d="M730.537625 593.816389a61.184 80.9472 18.85 1 0 52.306733-153.211626 61.184 80.9472 18.85 1 0-52.306733 153.211626Z" fill="#F9D9CB" p-id="1107"></path><path d="M570.368 523.7248c-21.1968-20.736-40.6016-23.4496-50.1248-23.2448h-12.2368c-11.8784 0-39.2704 3.9936-66.2528 42.4448-35.84 51.2-44.3904 57.088-87.6544 98.0992a137.0624 137.0624 0 0 0-17.6128 20.48 381.0304 381.0304 0 0 0 233.8816-137.7792zM560.4864 330.1888c-8.6016 49.1008 14.4896 94.1568 51.6608 100.7104a54.6816 54.6816 0 0 0 12.9024 0.6144 380.0064 380.0064 0 0 0 29.0816-146.2784c0-9.9328-0.3584-19.7632-1.1264-29.4912a55.7568 55.7568 0 0 0-9.728-2.7136c-37.12-6.5024-74.1888 28.0576-82.7904 77.1584z" fill="#FCEDE8" p-id="1108"></path><path d="M677.0176 612.0448c-32.4096-30.72-40.96-38.7072-71.68-82.3296-32.512-46.3872-67.584-52.6848-85.6064-52.2752h-11.2128c-18.0224-0.4096-53.1456 5.888-85.6576 52.2752-30.72 43.6224-39.2704 51.8144-71.68 82.3296-3.9936 3.7376-8.2944 7.7824-13.0048 12.288-50.3296 47.7184-54.1696 110.9504-28.8768 142.1824 17.7664 21.9136 42.752 32.8192 75.6224 32.8192A224.9728 224.9728 0 0 0 445.44 789.7088a264.1408 264.1408 0 0 1 61.952-8.7552h13.1584a260.7104 260.7104 0 0 1 61.7472 8.704c64.4096 18.2272 109.0048 10.6496 136.448-23.1424 25.2928-31.232 21.4528-94.464-28.8768-142.1824z m6.0928 125.44c-5.12 6.6048-21.6064 26.6752-88.2688 7.7824a304.128 304.128 0 0 0-74.9568-10.24h-11.52a311.04 311.04 0 0 0-75.1104 10.24c-66.56 18.8416-82.7904-1.2288-88.1152-7.8336-9.2672-11.4176-8.8576-47.8208 24.832-79.7184 4.6592-4.4544 8.9088-8.4992 12.8512-12.1856 33.3312-31.3856 44.544-41.9328 77.824-89.4464 20.48-29.184 38.8096-32.6144 46.08-32.6144H520.5504c7.0656 0 25.9072 2.7136 46.848 32.6144 33.28 47.5136 44.4928 58.0608 77.7728 89.4464 3.9424 3.6864 8.2432 7.7312 12.9024 12.1856 33.8944 31.9488 34.2528 68.352 25.0368 79.5648zM411.8528 454.7072a77.2096 77.2096 0 0 0 12.8-1.1264c49.6128-8.704 81.152-65.8432 70.4-127.3856S435.2 221.696 385.536 230.4 304.384 296.192 315.1872 357.7344c9.8304 56.2176 51.712 96.9728 96.6656 96.9728z m-18.3296-179.2a33.8432 33.8432 0 0 1 5.12-0.4096c22.5792 0 45.2096 25.6 51.2 58.8288 6.2976 35.84-8.7552 69.8368-32.9216 74.0352s-49.8688-22.528-56.32-58.4192 8.7552-69.5808 32.9216-73.8304zM352.1536 490.0352A118.3232 118.3232 0 0 0 307.8144 430.08a77.9776 77.9776 0 0 0-68.9664-11.1616 78.1824 78.1824 0 0 0-47.7696 51.2 118.528 118.528 0 0 0 1.6384 74.6496C208.128 589.6704 245.76 619.52 283.5968 619.52a69.0688 69.0688 0 0 0 22.4256-3.6864c43.9808-15.2064 64.6656-71.5264 46.1312-125.7984z m-61.0304 81.92c-19.5072 6.656-44.6464-12.7488-54.784-42.4448a73.0624 73.0624 0 0 1-1.4848-45.312c2.1504-6.4512 7.424-17.92 18.8928-21.8112a24.064 24.064 0 0 1 7.8848-1.3312 38.2464 38.2464 0 0 1 20.48 7.0656 72.8576 72.8576 0 0 1 26.5216 36.7104c10.0352 29.7984 2.0992 60.5184-17.5104 67.2256zM608.1536 453.5808a77.824 77.824 0 0 0 12.8512 1.1264c44.9536 0 87.04-40.96 96.6656-96.9728 10.752-61.44-20.8384-118.6816-70.4-127.3856s-98.7136 34.304-109.6704 95.8464 20.992 118.6816 70.5536 127.3856z m-24.9856-119.4496c6.2976-35.84 32-62.6176 56.32-58.4192s39.2192 38.144 32.9216 74.0352-32.1024 62.6176-56.32 58.4192-39.2192-38.144-32.9216-74.0352zM838.0416 469.8624a74.3424 74.3424 0 0 0-116.736-39.7824 118.3232 118.3232 0 0 0-44.3392 60.0064c-18.5344 54.272 2.1504 110.592 46.08 125.6448a69.0688 69.0688 0 0 0 22.4256 3.6864c37.632 0 75.4688-29.696 90.88-74.8544a118.528 118.528 0 0 0 1.6896-74.7008z m-45.2608 59.7504c-10.24 29.696-35.2256 49.1008-54.784 42.4448s-27.5456-37.4272-17.408-67.1232a72.8576 72.8576 0 0 1 26.5216-36.7104c5.6832-3.84 16.8448-9.6768 28.2624-5.7344s16.7424 15.36 18.8928 21.8112a73.0624 73.0624 0 0 1-1.4848 45.312z" fill="#333333" p-id="1109"></path></svg>